<svg width="30" height="30" viewBox="0 0 30 30" fill="none" xmlns="http://www.w3.org/2000/svg">
<path fill-rule="evenodd" clip-rule="evenodd" d="M2.77543 20.9746C2.68812 20.8875 2.61885 20.784 2.57159 20.6701C2.52433 20.5562 2.5 20.4341 2.5 20.3108C2.5 20.1875 2.52433 20.0654 2.57159 19.9515C2.61885 19.8376 2.68812 19.7342 2.77543 19.6471L14.0254 8.39707C14.1125 8.30977 14.216 8.2405 14.3299 8.19324C14.4438 8.14597 14.5659 8.12165 14.6892 8.12165C14.8125 8.12165 14.9346 8.14597 15.0485 8.19324C15.1624 8.2405 15.2658 8.30977 15.3529 8.39707L26.6029 19.6471C26.779 19.8231 26.8779 20.0619 26.8779 20.3108C26.8779 20.5598 26.779 20.7985 26.6029 20.9746C26.4269 21.1506 26.1881 21.2495 25.9392 21.2495C25.6902 21.2495 25.4515 21.1506 25.2754 20.9746L14.6892 10.3864L4.10293 20.9746C4.01584 21.0619 3.91239 21.1311 3.79849 21.1784C3.68459 21.2257 3.56249 21.25 3.43918 21.25C3.31586 21.25 3.19376 21.2257 3.07986 21.1784C2.96597 21.1311 2.86251 21.0619 2.77543 20.9746Z" fill="white"/>
</svg>
