<svg width="20" height="21" viewBox="0 0 20 21" fill="none" xmlns="http://www.w3.org/2000/svg">
<rect y="0.57251" width="20" height="20" rx="10" fill="white"/>
<path fill-rule="evenodd" clip-rule="evenodd" d="M7.6049 6.0352C7.63806 6.00194 7.67747 5.97556 7.72084 5.95756C7.76422 5.93956 7.81073 5.9303 7.85769 5.9303C7.90465 5.9303 7.95116 5.93956 7.99454 5.95756C8.03791 5.97556 8.07732 6.00194 8.11048 6.0352L12.3951 10.3198C12.4284 10.353 12.4547 10.3924 12.4727 10.4358C12.4907 10.4791 12.5 10.5256 12.5 10.5726C12.5 10.6196 12.4907 10.6661 12.4727 10.7095C12.4547 10.7528 12.4284 10.7922 12.3951 10.8254L8.11048 15.11C8.04344 15.1771 7.95251 15.2147 7.85769 15.2147C7.76287 15.2147 7.67194 15.1771 7.6049 15.11C7.53785 15.043 7.50019 14.952 7.50019 14.8572C7.50019 14.7624 7.53785 14.6715 7.6049 14.6044L11.6374 10.5726L7.6049 6.54078C7.57165 6.50761 7.54527 6.46821 7.52727 6.42483C7.50927 6.38146 7.5 6.33495 7.5 6.28799C7.5 6.24102 7.50927 6.19452 7.52727 6.15114C7.54527 6.10776 7.57165 6.06836 7.6049 6.0352Z" fill="black"/>
</svg>
