<svg width="30" height="30" viewBox="0 0 30 30" fill="none" xmlns="http://www.w3.org/2000/svg">
<path fill-rule="evenodd" clip-rule="evenodd" d="M9.02543 2.77543C9.11251 2.68812 9.21597 2.61885 9.32986 2.57159C9.44376 2.52433 9.56586 2.5 9.68918 2.5C9.81249 2.5 9.93459 2.52433 10.0485 2.57159C10.1624 2.61885 10.2658 2.68812 10.3529 2.77543L21.6029 14.0254C21.6902 14.1125 21.7595 14.216 21.8068 14.3299C21.854 14.4438 21.8784 14.5659 21.8784 14.6892C21.8784 14.8125 21.854 14.9346 21.8068 15.0485C21.7595 15.1624 21.6902 15.2658 21.6029 15.3529L10.3529 26.6029C10.1769 26.779 9.93813 26.8779 9.68918 26.8779C9.44022 26.8779 9.20146 26.779 9.02543 26.6029C8.84939 26.4269 8.75049 26.1881 8.75049 25.9392C8.75049 25.6902 8.84939 25.4515 9.02543 25.2754L19.6136 14.6892L9.02543 4.10293C8.93812 4.01584 8.86885 3.91239 8.82159 3.79849C8.77433 3.68459 8.75 3.56249 8.75 3.43918C8.75 3.31586 8.77433 3.19376 8.82159 3.07986C8.86885 2.96597 8.93812 2.86251 9.02543 2.77543Z" fill="black"/>
</svg>
