<svg width="30" height="30" viewBox="0 0 30 30" fill="none" xmlns="http://www.w3.org/2000/svg">
<path d="M20.4088 9.13776C20.673 8.8863 21.0244 8.74728 21.3891 8.75004C21.7538 8.7528 22.1031 8.89712 22.3634 9.15255C22.6237 9.40797 22.7746 9.75453 22.7842 10.1191C22.7939 10.4836 22.6615 10.8377 22.4151 11.1065L14.9338 20.4628C14.8052 20.6013 14.6499 20.7125 14.4773 20.7897C14.3047 20.8669 14.1183 20.9085 13.9293 20.912C13.7403 20.9155 13.5525 20.8808 13.3771 20.8101C13.2018 20.7393 13.0425 20.634 12.9088 20.5003L7.94758 15.539C7.80942 15.4103 7.6986 15.255 7.62174 15.0825C7.54488 14.91 7.50355 14.7238 7.50022 14.535C7.49689 14.3462 7.53162 14.1586 7.60235 13.9835C7.67308 13.8084 7.77835 13.6493 7.91188 13.5158C8.04542 13.3823 8.20448 13.277 8.37958 13.2063C8.55469 13.1355 8.74224 13.1008 8.93106 13.1041C9.11988 13.1075 9.30609 13.1488 9.47859 13.2257C9.65109 13.3025 9.80634 13.4133 9.93508 13.5515L13.8613 17.4759L20.3732 9.17901C20.3849 9.16457 20.3974 9.1508 20.4107 9.13776H20.4088Z" fill="white"/>
</svg>
