<svg width="25" height="25" viewBox="0 0 25 25" fill="none" xmlns="http://www.w3.org/2000/svg">
<path d="M16.6059 8.09176C16.782 7.92412 17.0163 7.83144 17.2594 7.83328C17.5025 7.83512 17.7354 7.93133 17.9089 8.10162C18.0825 8.2719 18.1831 8.50294 18.1895 8.74597C18.1959 8.98901 18.1077 9.22504 17.9434 9.40426L12.9559 15.6418C12.8701 15.7341 12.7666 15.8083 12.6516 15.8597C12.5365 15.9112 12.4122 15.9389 12.2862 15.9412C12.1602 15.9436 12.035 15.9205 11.9181 15.8733C11.8012 15.8261 11.695 15.7559 11.6059 15.6668L8.29839 12.3593C8.20628 12.2734 8.1324 12.1699 8.08116 12.0549C8.02992 11.9399 8.00237 11.8158 8.00015 11.6899C7.99792 11.564 8.02108 11.439 8.06823 11.3223C8.11538 11.2055 8.18556 11.0995 8.27459 11.0105C8.36361 10.9214 8.46965 10.8513 8.58639 10.8041C8.70312 10.757 8.82816 10.7338 8.95404 10.736C9.07992 10.7382 9.20406 10.7658 9.31906 10.817C9.43406 10.8683 9.53756 10.9421 9.62339 11.0343L12.2409 13.6505L16.5821 8.11926C16.59 8.10963 16.5983 8.10045 16.6071 8.09176H16.6059Z" fill="#002882"/>
</svg>
