<svg width="30" height="30" viewBox="0 0 30 30" fill="none" xmlns="http://www.w3.org/2000/svg">
<rect width="30" height="30" rx="15" fill="#EBEDF4" fill-opacity="0.6"/>
<g clip-path="url(#clip0_432_10269)">
<path fill-rule="evenodd" clip-rule="evenodd" d="M8.12091 6.57443C8.31776 6.37788 8.55413 6.22541 8.81436 6.12712C9.07459 6.02883 9.35273 5.98697 9.63037 6.00431C9.908 6.02164 10.1788 6.09779 10.4248 6.22769C10.6707 6.35759 10.8863 6.53829 11.0572 6.7578L13.0765 9.35205C13.4467 9.82793 13.5772 10.4478 13.4309 11.0328L12.8155 13.4966C12.7837 13.6242 12.7854 13.7578 12.8205 13.8846C12.8556 14.0113 12.9229 14.1268 13.0158 14.2199L15.7799 16.9841C15.8731 17.0772 15.9888 17.1445 16.1158 17.1796C16.2427 17.2147 16.3766 17.2163 16.5044 17.1843L18.967 16.5689C19.2557 16.4967 19.557 16.4911 19.8482 16.5525C20.1394 16.6139 20.4128 16.7407 20.6478 16.9233L23.242 18.9416C24.1747 19.6672 24.2602 21.0453 23.4254 21.8789L22.2622 23.0422C21.4297 23.8747 20.1854 24.2403 19.0255 23.8319C16.0569 22.7874 13.3615 21.0879 11.1393 18.8594C8.91099 16.6376 7.21147 13.9426 6.16679 10.9743C5.75954 9.81555 6.12516 8.57018 6.95766 7.73768L8.12091 6.57443Z" fill="#002882"/>
</g>
<defs>
<clipPath id="clip0_432_10269">
<rect width="18" height="18" fill="white" transform="translate(6 6)"/>
</clipPath>
</defs>
</svg>
