<svg width="30" height="30" viewBox="0 0 30 30" fill="none" xmlns="http://www.w3.org/2000/svg">
<path fill-rule="evenodd" clip-rule="evenodd" d="M20.9746 27.2246C20.8875 27.3119 20.784 27.3811 20.6701 27.4284C20.5562 27.4757 20.4341 27.5 20.3108 27.5C20.1875 27.5 20.0654 27.4757 19.9515 27.4284C19.8376 27.3811 19.7342 27.3119 19.6471 27.2246L8.39707 15.9746C8.30977 15.8875 8.2405 15.784 8.19324 15.6701C8.14597 15.5562 8.12165 15.4341 8.12165 15.3108C8.12165 15.1875 8.14597 15.0654 8.19324 14.9515C8.2405 14.8376 8.30977 14.7342 8.39707 14.6471L19.6471 3.39707C19.8231 3.22104 20.0619 3.12214 20.3108 3.12214C20.5598 3.12214 20.7985 3.22104 20.9746 3.39707C21.1506 3.57311 21.2495 3.81187 21.2495 4.06083C21.2495 4.30978 21.1506 4.54854 20.9746 4.72458L10.3864 15.3108L20.9746 25.8971C21.0619 25.9842 21.1311 26.0876 21.1784 26.2015C21.2257 26.3154 21.25 26.4375 21.25 26.5608C21.25 26.6841 21.2257 26.8062 21.1784 26.9201C21.1311 27.034 21.0619 27.1375 20.9746 27.2246Z" fill="black"/>
</svg>
