<svg width="20" height="21" viewBox="0 0 20 21" fill="none" xmlns="http://www.w3.org/2000/svg">
<rect width="20" height="20" rx="10" transform="matrix(-1 0 0 1 20 0.57251)" fill="white" fill-opacity="0.8"/>
<path fill-rule="evenodd" clip-rule="evenodd" d="M12.3951 6.0352C12.3619 6.00194 12.3225 5.97556 12.2792 5.95756C12.2358 5.93956 12.1893 5.9303 12.1423 5.9303C12.0953 5.9303 12.0488 5.93956 12.0055 5.95756C11.9621 5.97556 11.9227 6.00194 11.8895 6.0352L7.6049 10.3198C7.57165 10.353 7.54527 10.3924 7.52727 10.4358C7.50927 10.4791 7.5 10.5256 7.5 10.5726C7.5 10.6196 7.50927 10.6661 7.52727 10.7095C7.54527 10.7528 7.57165 10.7922 7.6049 10.8254L11.8895 15.11C11.9566 15.1771 12.0475 15.2147 12.1423 15.2147C12.2371 15.2147 12.3281 15.1771 12.3951 15.11C12.4621 15.043 12.4998 14.952 12.4998 14.8572C12.4998 14.7624 12.4621 14.6715 12.3951 14.6044L8.36256 10.5726L12.3951 6.54078C12.4284 6.50761 12.4547 6.46821 12.4727 6.42483C12.4907 6.38146 12.5 6.33495 12.5 6.28799C12.5 6.24102 12.4907 6.19452 12.4727 6.15114C12.4547 6.10776 12.4284 6.06836 12.3951 6.0352Z" fill="black"/>
</svg>
